<?xml version="1.0" encoding="utf-8"?>
<!-- Generator: Adobe Illustrator 19.1.0, SVG Export Plug-In . SVG Version: 6.00 Build 0)  -->
<svg version="1.1" id="Capa_1" xmlns="http://www.w3.org/2000/svg" xmlns:xlink="http://www.w3.org/1999/xlink" x="0px" y="0px"
	 viewBox="0 0 448.9 148.7" style="enable-background:new 0 0 448.9 148.7;" xml:space="preserve">
<style type="text/css">
	.st0{fill:#7BAE2E;}
	.st1{fill:#463E45;}
	.st2{fill:#94BF2D;}
</style>
<g>
	<path class="st0" d="M70.8,80c-0.2-10,0.5-22.3,4.9-26.7c0.3-0.3,0.7-0.7,1.1-1c-0.4-0.1-0.8-0.2-1.1-0.3
		c-8.4-2.8-16.9-8.7-22.8-13.3c-3.2-1.7-6.3-3.6-9.2-5.6c-1.6,0.6-3.1,1.2-4.5,1.8c4.7,2.5,16.2,9.8,18.2,24.1
		c0.5,3.5,0.6,7.9,0.5,12.6c3.4,3.2,5.9,10.7,7.4,16.6C67.1,84,69,80.8,70.8,80z"/>
	<path class="st0" d="M65.7,89.8c0.6,2.8,1,5,1.2,5.9c1.6-0.8,3.2-1.6,4.8-2.5c-0.2-1.9-0.6-6.6-0.8-12.1
		C69.3,82.1,67.5,85.4,65.7,89.8z"/>
	<path class="st0" d="M57,71c0.1-4.4,0-8.4-0.5-11.8c-2.1-14.8-14.8-22-18.6-23.8L37,34.9l0.9-0.4c1.5-0.7,3.2-1.4,4.9-2.1
		c-6-4.2-10.6-8.4-12.3-10l-0.4,0.1c-2.5,0.9-4.9,1.8-7.3,2.9c3.9,1.9,16.7,9.2,18.9,24.2c2.3,15.9-3.6,48.3-4.8,54.7
		c2-0.2,3.9-0.5,5.9-0.9C44,98.1,51.4,69.1,57,71z"/>
	<g>
		<path class="st0" d="M79.3,43.2c-2.8,0.3-5.6,0.5-8.4,0.4c1.1,0.9,2.4,1.4,3.9,1.4C76.6,44.9,78.1,44.3,79.3,43.2z"/>
		<path class="st0" d="M102.7,44c-0.4-1.9-1-3.7-1.8-5.5c-2.2,0.7-10.7,3.3-20.2,4.5c-1.4,1.8-3.5,2.9-5.9,2.9
			c-2.1,0-4.1-0.9-5.4-2.4c-3.2-0.2-6.2-0.6-8.9-1.5c-1.1-0.4-2.2-0.8-3.4-1.3c5.4,4,12.2,8.2,18.9,10.4c0.6,0.2,1.2,0.4,1.7,0.5
			C85.4,46,98.8,44.5,102.7,44L102.7,44z"/>
	</g>
</g>
<path class="st1" d="M420.3,68.4h0.9c0.3,0,0.6,0,0.9-0.2c0.2-0.1,0.2-0.3,0.2-0.5c0-0.1,0-0.2,0-0.4c-0.1-0.1-0.2-0.2-0.3-0.2
	c-0.2,0-0.5,0-0.7,0h-0.8L420.3,68.4z M419.5,70.9v-4.6h1.5c0.4-0.1,0.8-0.1,1.1,0c0.2,0.1,0.4,0.2,0.6,0.4c0.1,0.2,0.2,0.4,0.2,0.6
	c0,0.3-0.1,0.6-0.4,0.9c-0.2,0.3-0.6,0.4-0.9,0.4c0.1,0.1,0.3,0.1,0.4,0.2c0.3,0.3,0.5,0.6,0.7,0.9l0.6,0.9h-0.9L422,70
	c-0.2-0.4-0.4-0.8-0.8-1.1c-0.2-0.1-0.4-0.2-0.6-0.1h-0.4v1.9L419.5,70.9z M421.4,65.1c-0.6,0-1.2,0.2-1.7,0.4
	c-0.5,0.3-1,0.7-1.3,1.3c-0.6,1.1-0.6,2.4,0,3.5c0.3,0.5,0.7,1,1.3,1.3c1.1,0.6,2.4,0.6,3.5,0c0.5-0.3,1-0.7,1.3-1.3
	c0.6-1.1,0.6-2.4,0-3.5c-0.3-0.5-0.7-1-1.3-1.3C422.6,65.2,422,65.1,421.4,65.1 M421.4,64.4c0.7,0,1.4,0.2,2.1,0.5
	c0.7,0.3,1.2,0.9,1.6,1.5c0.4,0.6,0.6,1.4,0.6,2.1c0,0.7-0.2,1.4-0.6,2.1c-0.4,0.6-0.9,1.2-1.5,1.5c-1.3,0.7-2.9,0.7-4.1,0
	c-0.7-0.4-1.2-0.9-1.6-1.5c-0.7-1.3-0.7-2.9,0-4.2c0.4-0.6,0.9-1.2,1.6-1.5C420,64.5,420.7,64.4,421.4,64.4"/>
<path class="st1" d="M127.6,74.4c0,0.6-0.1,1.1-0.1,1.7v0.4c-0.8,5.4-5.2,7.2-11,7.2c-2.3,0-4.4,0-5.7,0l2.5-14.1
	c1.2-0.1,4.1-0.1,5.7-0.1c5.9,0,8.8,1.1,8.8,5.1 M132.4,74.3c0-6.4-5.2-9.2-12.6-9.2c-2.5,0-6.9,0.1-9.1,0.4c-0.9,0-1.3,0.4-1.4,1.1
	l-6.5,36v0.2c0,0.4,0.2,0.8,0.6,0.8c0,0,0.1,0,0.1,0h2.8c0.6-0.1,1-0.5,1.1-1l2.6-15.2c1.3,0,4,0.1,5.7,0.1h1.6l6.5,15.4
	c0.3,0.7,0.4,0.7,1,0.7h3.4c0.5,0,0.8-0.3,0.8-0.6c0-0.1,0-0.2,0-0.4L122.1,87c5.3-0.8,9.4-5.1,9.9-10.4v-0.4
	c0.1-0.6,0.1-1.3,0.1-1.9"/>
<path class="st1" d="M151.2,84.5c0,1-0.1,2-0.3,2.9v0.3h-13.7v-0.3c0.9-4.7,3.9-8.3,8.4-8.3c2.7-0.4,5.2,1.4,5.6,4.1
	c0.1,0.5,0.1,0.9,0,1.4 M155.7,84.7c0.4-4.9-3.1-9.1-8-9.6c-0.5,0-0.9,0-1.4,0c-7.3,0-12.1,4.5-13.7,12.7l-0.7,3.6
	c-0.2,1-0.3,2.1-0.3,3.2c0,6.9,5.1,9.5,10.2,9.5c3,0,6-0.3,9-0.9c0.9-0.1,1.1-0.5,1.2-1.2l0.3-1.7v-0.2c0-0.4-0.3-0.5-0.7-0.5h-0.3
	c-2.9,0.4-5.9,0.7-8.8,0.7c-4,0-6.4-1.6-6.4-5.5c0-1.1,0.1-2.1,0.4-3.1l0.1-0.6h17.2c0.8,0,1-0.5,1.1-1.1l0.4-2.1
	C155.6,86.8,155.7,85.8,155.7,84.7"/>
<path class="st1" d="M175.6,84c0,1.2-0.1,2.4-0.4,3.6l-0.8,3.9c-1,5.3-3.5,8.8-8.2,8.8c-2,0-3.9-0.2-5.9-0.5l3.6-20.4
	c2-0.3,4.1-0.5,6.1-0.5c4,0,5.5,1.9,5.5,5.4 M180,84.5c0.5-4.7-2.9-8.9-7.6-9.4c-0.6-0.1-1.2-0.1-1.8,0c-3.3,0-6.5,0.4-9.7,1.2
	c-0.9,0.2-1.2,0.5-1.3,1.2l-6.2,35.3v0.2c-0.1,0.4,0.2,0.7,0.6,0.8c0.1,0,0.1,0,0.2,0h2.6c0.6,0,1-0.4,1.2-1l1.8-9.2
	c1.9,0.3,3.9,0.5,5.9,0.6c7.9,0,11.8-3.9,13.4-12.6l0.7-3.7C180,86.6,180.1,85.5,180,84.5"/>
<path class="st1" d="M199.4,79.3l-3.1,17.9c-2.1,1.7-4.7,2.7-7.5,2.9c-2.5,0-4.5-1.4-4.5-5.4c0-0.8,0.1-1.6,0.2-2.4l0.9-5.3
	c1-5.5,3.6-8.4,8.8-8.4c1.7,0,3.4,0.2,5,0.5 M204.3,76.9c0-0.5-0.3-0.6-0.9-0.8c-2.9-0.7-6-1.1-9-1.2c-6.2,0-11.8,2.9-13.4,11.8
	l-0.9,5.1c-0.2,1-0.3,2.1-0.3,3.1c0,6.3,3.6,9.1,8,9.1c3,0.1,6-1,8.3-2.9l-0.3,1.6v0.3c0,0.5,0.1,0.8,0.8,0.8h2.1
	c0.6,0,1.1-0.5,1.2-1l4.4-25.3c0-0.1,0-0.3,0-0.4"/>
<path class="st1" d="M220.8,75.7c0-0.5-0.3-0.7-0.9-0.7l0,0c-2.8-0.1-5.5,0.8-7.6,2.6l0.2-1.2v-0.2c0-0.4-0.2-0.8-0.6-0.8
	c0,0-0.1,0-0.1,0h-2.4c-0.6,0-1.1,0.5-1.2,1l-4.6,26.3v0.2c0,0.4,0.3,0.8,0.7,0.8c0,0,0,0,0.1,0h2.5c0.6,0,1.1-0.4,1.2-1l3.6-21.6
	c2.2-1.5,4.7-2.2,7.4-2.1h0.1c0.7,0,1.1-0.3,1.2-0.9l0.4-2.2L220.8,75.7z"/>
<path class="st1" d="M237.2,79.3L234,97.3c-2.1,1.7-4.7,2.7-7.5,2.9c-2.5,0-4.5-1.4-4.5-5.4c0-0.8,0.1-1.6,0.2-2.4l0.9-5.3
	c1-5.5,3.6-8.4,8.8-8.4c1.7,0,3.4,0.2,5,0.5 M242.1,77c0-0.5-0.3-0.6-0.9-0.8c-2.9-0.7-6-1.1-9-1.2c-6.2,0-11.8,2.9-13.4,11.8
	l-0.9,5.1c-0.2,1-0.3,2.1-0.3,3.1c0,6.3,3.6,9.1,8,9.1c3,0.1,6-1,8.3-2.9l-0.3,1.6v0.3c0,0.5,0.1,0.8,0.8,0.8h2.1
	c0.6,0,1.1-0.5,1.2-1l4.5-25.5C242.2,77.3,242.2,77.1,242.1,77"/>
<path class="st1" d="M260,76.2c0-0.4-0.3-0.8-0.8-0.8c0,0,0,0-0.1,0h-5.6l0.9-5.6v-0.1c0-0.4-0.2-0.7-0.6-0.7l0,0l-2.9,0.4
	c-0.6,0.1-1,0.5-1.1,1l-0.8,5.1h-5c-0.6,0-1,0.4-1.1,0.9l-0.3,1.4v0.1c0,0.5,0.4,0.7,0.8,0.8l4.9,0.6l-3.2,18
	c-0.1,0.7-0.2,1.3-0.2,2c0,3.6,2.7,4.9,6.2,4.9c1.1,0,2.2-0.1,3.2-0.3c0.7,0,1-0.4,1.1-0.9l0.3-1.8v-0.2c0-0.5-0.3-0.5-0.7-0.5h-3
	c-1.6,0-2.4-0.1-2.4-1.6c0-0.5,0.1-1,0.1-1.5l3.2-18.1h5.6c0.6,0,1.2-0.4,1.3-1l0.3-1.8L260,76.2z"/>
<path class="st1" d="M283.1,76.2c0-0.4-0.3-0.8-0.7-0.8c0,0,0,0-0.1,0h-2.5c-0.6,0-1.1,0.4-1.2,1l-3.8,21.8
	c-2.3,1.1-4.8,1.8-7.3,1.9c-3.4,0-4.8-0.9-4.8-3.8c0-1,0.1-2,0.3-2.9l2.9-16.9v-0.2c0-0.4-0.3-0.8-0.8-0.8c0,0,0,0-0.1,0h-2.4
	c-0.6,0-1.1,0.4-1.2,1l-2.9,16.4c-0.2,1-0.3,2-0.3,3c-0.6,3.9,2.1,7.6,6,8.2c0.5,0.1,0.9,0.1,1.4,0.1c3,0,6-0.8,8.6-2.4l-0.1,0.9
	v0.2c0,0.4,0.2,0.8,0.6,0.8c0,0,0.1,0,0.1,0h2.5c0.6,0,1.1-0.5,1.2-1l4.6-26.3L283.1,76.2z"/>
<path class="st1" d="M307.1,77.5c0,1.1-0.1,2.2-0.3,3.2l-1.3,7.6c-1.2,7.4-5.7,9.7-10.8,9.7c-1.9,0-3.2,0-4.3-0.1l4.7-26.7
	c1.1,0,2.5-0.1,4.4-0.1C304.1,71.1,307.1,72.3,307.1,77.5 M314.2,77.3c0-7.7-4.9-12.3-13.7-12.3c-3.4,0-6.8,0.2-10.2,0.6
	c-0.9,0.1-1.5,0.7-1.6,1.6l-6.2,34.7c0,0.1,0,0.3,0,0.4c0,0.7,0.4,1.1,1.1,1.2c3.3,0.4,6.7,0.6,10,0.6c10.9,0,17.2-5.1,19-15.8
	l1.3-7.6C314.1,79.6,314.2,78.4,314.2,77.3"/>
<path class="st1" d="M332.7,84.7c0,0.7-0.1,1.3-0.2,1.9h-10.9c0.7-3.8,2.6-6.5,6.7-6.5c2.2-0.2,4.2,1.4,4.5,3.6
	C332.8,84.1,332.8,84.4,332.7,84.7 M339.5,84.7c0-5.9-3.2-10.6-10.1-10.6c-7.9,0-13,3.6-14.7,13.2l-0.6,3.2c-0.2,1-0.3,2-0.3,2.9
	c-0.4,5.3,3.5,9.9,8.8,10.3c0.5,0,0.9,0,1.4,0c3.5,0.1,6.9-0.2,10.4-0.9c1-0.1,1.1-0.5,1.3-1.3l0.6-3.4V98c0-0.5-0.4-0.6-0.8-0.6
	h-0.2c-2.2,0.2-5.9,0.6-9.5,0.6c-3.6,0-5.3-1.9-5.3-4.6c0-0.7,0.1-1.4,0.3-2.1h16.8c0.7,0,1.1-0.5,1.2-1.3l0.4-2.5
	c0.2-1,0.3-2,0.3-2.9"/>
<path class="st1" d="M367.4,75.5c0-0.5-0.4-0.9-0.8-0.9c0,0,0,0-0.1,0h-4.7c-0.6,0.1-1.1,0.5-1.2,1.1l-3.6,20.6
	c-2.1,1.1-4.4,1.7-6.7,1.9c-2.4,0-3.1-0.5-3.1-2.7c0-1,0.2-2,0.4-2.9l2.9-16.8v-0.2c0.1-0.4-0.2-0.8-0.6-0.9c-0.1,0-0.1,0-0.2,0
	h-4.7c-0.6,0-1.1,0.5-1.2,1.1l-2.9,16.8c-0.2,1.3-0.4,2.5-0.4,3.8c-0.4,3.9,2.5,7.4,6.4,7.8c0.5,0,0.9,0,1.4,0
	c2.9-0.1,5.8-1,8.2-2.6l-0.1,1.1l0,0c0,0.5,0.4,0.9,0.9,0.9c0,0,0,0,0,0h4.4c0.6,0,1.1-0.5,1.2-1L367.4,75.5L367.4,75.5z"/>
<path class="st1" d="M386.1,80.2l-3.1,18c-1.7,0.3-3.3,0.4-5,0.4c-3.4,0-4.5-1.3-4.5-4.2c0-1.1,0.1-2.1,0.3-3.2l0.7-4
	c0.8-5,2.4-7.4,6.9-7.4C382.8,79.9,384.5,80,386.1,80.2 M395.5,65.5c0-0.5-0.3-0.8-0.8-0.9c0,0-0.1,0-0.1,0h-4.7
	c-0.6,0-1.1,0.5-1.2,1l-1.6,9.1c-1.6-0.2-3.2-0.3-4.9-0.4c-8.3,0-13.1,3.6-14.7,12.9l-0.7,4c-0.2,1-0.3,2-0.3,2.9
	c-0.5,5.1,3.3,9.7,8.5,10.1c0.6,0.1,1.2,0,1.8,0c3.6,0,7.1-0.5,10.6-1.3c1.2-0.3,1.5-0.6,1.6-1.4l6.3-35.8L395.5,65.5z"/>
<path class="st1" d="M412,80.2l-2.9,16.2c-1.9,1.3-4.1,2-6.4,2.1c-2,0-3.6-1-3.6-3.9c0-0.7,0.1-1.4,0.2-2.1l0.9-5.3
	c0.7-4.2,2.4-7.4,6.9-7.4C408.7,79.8,410.3,80,412,80.2 M419.4,76.6c0-0.6-0.4-0.8-1.2-1c-3.3-0.9-6.7-1.3-10.1-1.3
	c-8.3,0-13.2,4.9-14.7,12.9c-0.4,1.9-0.8,4.5-0.8,4.5c-0.2,1-0.3,2-0.3,2.9c0,6.1,3.7,9.3,8.4,9.3c2.9,0,5.7-1.1,8-2.9l-0.2,1.5v0.1
	c-0.1,0.4,0.2,0.8,0.6,0.9c0.1,0,0.1,0,0.2,0h4.1c0.6,0,1.1-0.4,1.2-1l4.5-25.7c0-0.1,0-0.3,0-0.4"/>
<path class="st0" d="M66.4,28.9c0,3.8-3.1,6.9-6.9,6.9c-3.8,0-6.9-3.1-6.9-6.9c0-3.8,3.1-6.9,6.9-6.9C63.3,22,66.4,25.1,66.4,28.9
	L66.4,28.9"/>
<path class="st2" d="M74.9,32.1c-3.5,0-6.4,2.9-6.4,6.4c0,3.5,2.9,6.4,6.4,6.4s6.4-2.9,6.4-6.4C81.3,35,78.4,32.1,74.9,32.1z"/>
<path class="st2" d="M116.8,50.8c-0.2-0.7-0.5-1.3-0.8-2.1c-5.2,1.7-26.7,7.9-40.3,3.4c-13.5-4.5-27.1-16.8-30.1-19.6h-0.2
	c-2.2,0.8-4.3,1.6-6.2,2.5c4.7,2.5,16.2,9.8,18.2,24.1c2.2,15.7-3.3,46.6-4.7,54.2c1.6-0.2,3.2-0.4,4.9-0.7
	c1.9-7.6,8-30.9,13.4-32.6c0.8-0.3,1.6-0.1,2.3,0.5c5.5,4.7,8.6,20.2,9.2,24c1.3-0.6,2.6-1.3,3.9-2c-0.6-6.1-2.8-32.8,4.3-40
	c6.9-6.9,21.6-8.8,26.7-9.4C117.3,52.3,117.1,51.5,116.8,50.8z"/>
<path class="st0" d="M170.6,126.2v0.9c0,0.2,0,0.2-0.3,0.3c-1.3,0.1-2.6,0.2-4,0.2c-2,0-3.7-0.5-3.7-2.9c0-0.4,0-0.7,0-1.1l1.9-10.7
	c0-0.2,0.2-0.4,0.4-0.4c0,0,0.1,0,0.1,0h1c0.2,0,0.3,0.1,0.3,0.3c0,0,0,0.1,0,0.1l-1.9,11c0,0.3,0,0.6,0,0.9c0,0.9,0.5,1.2,2.2,1.2
	h3.8c0.1,0,0.2,0.1,0.3,0.2c0,0,0,0,0,0L170.6,126.2z"/>
<path class="st0" d="M180.4,116.6c0.4,0,0.4,0.2,0.4,0.5L179,127c0,0.2-0.2,0.4-0.4,0.4c0,0,0,0-0.1,0h-0.8c-0.3,0-0.4-0.2-0.3-0.4
	v-0.6c-0.9,0.8-2.1,1.2-3.3,1.2c-1.7,0-3.1-1.1-3.1-3.6c0-0.4,0-0.8,0-1.2l0.4-2c0.2-2.7,2.5-4.8,5.2-4.6c0,0,0,0,0,0
	C177.9,116.1,179.1,116.3,180.4,116.6z M176.8,117.6c-2.1,0-3.1,1.1-3.5,3.3L173,123c0,0.3,0,0.6,0,0.9c0,1.6,0.8,2.1,1.8,2.1
	c1.1-0.1,2.1-0.5,2.9-1.2l1.2-7C178.2,117.7,177.5,117.6,176.8,117.6L176.8,117.6z"/>
<path class="st0" d="M189.2,112.2c0.2,0,0.4,0,0.3,0.4l-2.5,14.4c0,0.2,0,0.4-0.4,0.4h-1.1c-0.2,0-0.3-0.1-0.3-0.3c0,0,0-0.1,0-0.1
	l2.5-14.4c0-0.2,0.2-0.4,0.4-0.4h0H189.2z"/>
<path class="st0" d="M198.3,121.1l-0.1,0.9c0,0.3,0,0.4-0.4,0.4h-6.8v0.2c0,0.4,0,0.8,0,1.2c0,1.5,0.9,2.1,2.5,2.1
	c1.2,0,2.3-0.1,3.5-0.3c0.3,0,0.4,0,0.4,0.3v0.7c0,0.3,0,0.4-0.5,0.5c-1.2,0.2-2.3,0.4-3.5,0.4c-2,0.2-3.7-1.2-4-3.2
	c0-0.2,0-0.4,0-0.6c0-0.4,0-0.8,0-1.3l0.3-1.4c0.2-2.8,2.5-5,5.4-5c1.9-0.2,3.6,1.3,3.7,3.2c0,0.2,0,0.4,0,0.6
	C198.5,120.3,198.4,120.7,198.3,121.1z M194.4,117.7c-1.8,0.1-3.2,1.5-3.3,3.3l0,0h5.4l0,0c0-0.4,0-0.7,0-1.1c0.1-1-0.6-2-1.7-2.1
	C194.7,117.7,194.6,117.7,194.4,117.7L194.4,117.7z"/>
<path class="st0" d="M208.5,116.8l-5.4,11.8c-1,2.2-1.9,2.9-4.2,2.9c-0.6,0-1.1-0.1-1.6-0.2c-0.2,0-0.4,0-0.4-0.3v-0.7
	c0-0.3,0-0.4,0.5-0.3c0.5,0,1.3,0,1.8,0c1.1,0,1.7-0.3,2.3-1.7l0.4-0.8h-0.2c-0.6,0-1.2-0.2-1.3-1.6l-1-9.1c0-0.4,0-0.5,0.4-0.5h1.1
	c0.2,0,0.3,0.1,0.3,0.3l0.9,8.8c0,0.4,0.2,0.4,0.3,0.4h0.3l4.1-9.2c0-0.2,0.2-0.3,0.4-0.3h1.2c0.2,0,0.3,0,0.3,0.3
	C208.5,116.7,208.5,116.7,208.5,116.8z"/>
<path class="st0" d="M221.4,112.2h1c0.2,0,0.3,0,0.3,0.4l-2.5,14.2c0,0.3,0,0.4-0.5,0.5c-1.2,0.2-2.5,0.4-3.8,0.4
	c-1.8,0.2-3.5-1.2-3.7-3c0-0.2,0-0.5,0-0.7c0-0.4,0-0.8,0-1.3l0.4-1.5c0.6-3.5,2.3-4.9,5.3-4.9c0.8,0,1.6,0.1,2.3,0.2l0.7-3.8
	C221,112.4,221.2,112.3,221.4,112.2z M217.7,117.7c-2,0-2.9,1.4-3.2,3.4l-0.3,1.4c0,0.4,0,0.9,0,1.3c0,1.4,0.6,2.1,2.2,2.1
	c0.7,0,1.7,0,2.4,0l1.4-8C219.3,117.8,218.5,117.7,217.7,117.7z"/>
<path class="st0" d="M231.4,121.1l-0.1,0.9c0,0.3,0,0.4-0.4,0.4H224v0.2c0,0.4,0,0.8,0,1.2c0,1.5,0.9,2.1,2.5,2.1
	c1.2,0,2.3-0.1,3.5-0.3c0.3,0,0.4,0,0.4,0.3v0.7c0,0.3,0,0.4-0.5,0.5c-1.2,0.2-2.3,0.4-3.5,0.4c-2,0.2-3.7-1.2-4-3.2
	c0-0.2,0-0.4,0-0.6c0-0.4,0-0.8,0-1.3l0.3-1.4c0.2-2.8,2.5-5,5.4-5c1.9-0.2,3.6,1.3,3.7,3.2c0,0.2,0,0.4,0,0.6
	C231.6,120.3,231.5,120.7,231.4,121.1z M227.4,117.7c-1.8,0.1-3.2,1.5-3.3,3.3l0,0h5.4l0,0c0-0.4,0-0.7,0-1.1c0.1-1-0.6-2-1.7-2.1
	C227.7,117.7,227.6,117.7,227.4,117.7z"/>
<path class="st0" d="M240.1,112.2c0.2,0,0.4,0,0.3,0.4l-2.5,14.4c0,0.2,0,0.4-0.4,0.4h-1.1c-0.2,0-0.3-0.1-0.3-0.3c0,0,0-0.1,0-0.1
	l2.5-14.4c0-0.2,0.2-0.4,0.4-0.4c0,0,0,0,0,0H240.1z"/>
<path class="st0" d="M248.9,116.6c0.4,0,0.4,0.2,0.4,0.5l-1.7,9.9c0,0.2-0.2,0.4-0.4,0.4c0,0,0,0-0.1,0h-0.8c-0.3,0-0.4-0.2-0.3-0.4
	v-0.6c-0.9,0.8-2.1,1.2-3.3,1.2c-1.7,0-3.1-1.1-3.1-3.6c0-0.4,0-0.8,0-1.2l0.4-2c0.2-2.7,2.5-4.8,5.2-4.6c0,0,0,0,0,0
	C246.5,116.1,247.7,116.3,248.9,116.6z M245.4,117.6c-2.1,0-3.1,1.1-3.5,3.3l-0.4,2.1c0,0.3,0,0.6,0,0.9c0,1.6,0.8,2.1,1.8,2.1
	c1.1-0.1,2.1-0.5,2.9-1.2l1.2-7C246.8,117.7,246.1,117.6,245.4,117.6z"/>
<path class="st0" d="M261.6,116.4c0.3,0,0.4,0,0.3,0.4v0.7c0,0.2-0.1,0.4-0.3,0.4c0,0-0.1,0-0.1,0c-1-0.1-2-0.2-2.9-0.1
	c-0.9,0-2.1,0.3-2.1,1.4c0,0.5,0.4,0.9,1.1,1.3l1.8,1.2c1.4,0.9,1.8,1.6,1.8,2.7c0,2.4-2.1,3.2-4.4,3.2c-1.1,0-2.1-0.1-3.1-0.3
	c-0.2,0-0.4-0.2-0.4-0.4v-0.7c0-0.3,0.1-0.4,0.5-0.3c1,0.1,2.1,0.2,3.1,0.2c1.2,0,2.3-0.4,2.3-1.7c0-0.5-0.2-0.8-1.2-1.4l-1.8-1.2
	c-1-0.5-1.7-1.5-1.7-2.6c0-2.2,2.1-2.9,4.2-2.9C259.6,116.1,260.6,116.2,261.6,116.4z"/>
<path class="st0" d="M271.3,121.1l-0.1,0.9c0,0.3,0,0.4-0.4,0.4h-6.8v0.2c0,0.4,0,0.8,0,1.2c0,1.5,0.9,2.1,2.5,2.1
	c1.2,0,2.3-0.1,3.5-0.3c0.3,0,0.4,0,0.4,0.3v0.7c0,0.3,0,0.4-0.5,0.5c-1.2,0.2-2.3,0.4-3.5,0.4c-2,0.2-3.7-1.2-4-3.2
	c0-0.2,0-0.4,0-0.6c0-0.4,0-0.8,0-1.3l0.3-1.4c0.2-2.8,2.5-5,5.4-5c1.9-0.1,3.5,1.3,3.7,3.2c0,0.2,0,0.4,0,0.6
	C271.5,120.3,271.4,120.7,271.3,121.1z M267.5,117.7c-1.8,0.1-3.2,1.5-3.3,3.3l0,0h5.3l0,0c0-0.4,0-0.7,0-1.1c0.1-1-0.6-2-1.7-2.1
	C267.7,117.7,267.6,117.7,267.5,117.7z"/>
<path class="st0" d="M272.2,121.1c0.6-3.6,2.4-4.9,5.4-4.9c1.2,0,2.4,0.2,3.5,0.5c0.4,0,0.4,0.2,0.4,0.5l-1.8,10.3
	c-0.6,3.1-1.9,4-4.8,4c-1.1,0-2.3-0.1-3.4-0.3c-0.3,0-0.4-0.2-0.3-0.4v-0.6c0-0.3,0-0.4,0.5-0.3c0.5,0,2.3,0.2,3.4,0.2
	c1.8,0,2.4-0.6,2.7-2.4v-0.2c-0.8,0.2-1.5,0.3-2.3,0.3c-1.8,0.3-3.5-1-3.8-2.8c0-0.3,0-0.5,0-0.8c0-0.5,0-0.9,0-1.4L272.2,121.1z
	 M277.3,117.7c-1.9,0-2.9,1.1-3.3,3.4l-0.3,1.5c0,0.5,0,1,0,1.4c0,1.5,0.7,2,2.3,2c0.8,0,1.5-0.1,2.3-0.2l1.4-8
	C278.9,117.7,278.1,117.6,277.3,117.7L277.3,117.7z"/>
<path class="st0" d="M291.2,116.4c0.3,0,0.4,0.2,0.3,0.4l-1.8,10.3c0,0.2-0.2,0.4-0.5,0.4h-0.9c-0.2,0-0.3-0.2-0.3-0.3
	c0,0,0,0,0-0.1v-0.4c-1,0.6-2.2,0.9-3.4,0.9c-1.6,0-2.9-1.3-3-2.9c0-0.1,0-0.2,0-0.2c0-0.4,0-0.8,0-1.2l1.1-6.4
	c0-0.2,0.2-0.4,0.5-0.4c0,0,0,0,0,0h1c0.2,0,0.4,0,0.3,0.4l-1.2,6.7c0,0.4,0,0.8,0,1.1c0,1.1,0.6,1.5,1.9,1.5c1,0,2-0.3,2.9-0.7
	l1.5-8.5c0-0.2,0.2-0.4,0.5-0.4c0,0,0,0,0,0L291.2,116.4z"/>
<path class="st0" d="M301,120.4l-1.2,6.7c-0.1,0.2-0.2,0.4-0.5,0.4h-1c-0.2,0-0.3-0.1-0.3-0.3c0,0,0-0.1,0-0.1l1.2-6.7
	c0-0.4,0-0.7,0-1.1c0-1-0.4-1.5-1.9-1.5c-1,0-2,0.3-2.9,0.8l-1.5,8.5c-0.1,0.2-0.3,0.4-0.5,0.4h-1c-0.2,0-0.3-0.2-0.3-0.3
	c0,0,0,0,0-0.1l1.8-10.3c0-0.3,0.3-0.4,0.6-0.4c0.1,0,0.1,0,0.2,0.1h0.9c0.3,0,0.4,0,0.4,0.4v0.4c1-0.6,2.1-1,3.3-1
	c1.6,0,2.9,1.4,2.9,3c0,0,0,0,0,0.1C301,119.7,301,120,301,120.4z"/>
<path class="st0" d="M310.8,112.2h1c0.2,0,0.3,0,0.3,0.4l-2.5,14.2c0,0.3,0,0.4-0.5,0.5c-1.2,0.2-2.5,0.4-3.8,0.4
	c-1.8,0.2-3.5-1.2-3.7-3c0-0.2,0-0.5,0-0.7c0-0.4,0-0.8,0-1.3l0.3-1.4c0.6-3.5,2.3-4.9,5.3-4.9c0.8,0,1.6,0.1,2.3,0.2l0.7-3.8
	C310.2,112.4,310.4,112.2,310.8,112.2C310.7,112.2,310.7,112.2,310.8,112.2z M307.1,117.7c-2,0-2.9,1.4-3.2,3.4l-0.3,1.4
	c0,0.4,0,0.9,0,1.3c0,1.4,0.6,2.1,2.2,2.1c0.7,0,1.7,0,2.4,0l1.4-8C308.7,117.8,307.9,117.7,307.1,117.7z"/>
<path class="st0" d="M320.5,116.6c0.4,0,0.4,0.2,0.4,0.5l-1.7,9.9c0,0.2-0.2,0.4-0.4,0.4c0,0,0,0-0.1,0h-0.8c-0.3,0-0.4-0.2-0.3-0.4
	v-0.6c-0.9,0.8-2.1,1.2-3.3,1.2c-1.7,0-3.1-1.1-3.1-3.6c0-0.4,0-0.8,0-1.2l0.4-2c0.2-2.7,2.5-4.8,5.2-4.6c0,0,0,0,0,0
	C318,116.1,319.2,116.3,320.5,116.6z M316.9,117.6c-2.1,0-3.1,1.1-3.5,3.3l-0.4,2.1c0,0.3,0,0.6,0,0.9c0,1.6,0.8,2.1,1.8,2.1
	c1.1-0.1,2.1-0.5,2.9-1.2l1.2-7C318.3,117.7,317.6,117.6,316.9,117.6z"/>
<path class="st0" d="M334.6,121.1l-0.3,1.5c-0.1,2.8-2.5,5-5.3,4.9c0,0-0.1,0-0.1,0c-1.9,0.1-3.6-1.3-3.7-3.2c0-0.2,0-0.4,0-0.6
	c0-0.4,0-0.7,0-1.1l0.3-1.5c0.1-2.8,2.4-5,5.2-4.9c0,0,0.1,0,0.1,0c1.9-0.2,3.6,1.3,3.7,3.2c0,0.2,0,0.4,0,0.6
	C334.6,120.3,334.6,120.7,334.6,121.1z M330.7,117.7c-1.8,0-2.9,1.3-3.3,3.4l-0.3,1.5c0,0.4,0,0.8,0,1.2c0,1.4,0.6,2.2,2.2,2.2
	c1.6,0,2.9-1.4,3.3-3.4l0.3-1.5c0-0.4,0-0.8,0-1.1c0.2-1.1-0.6-2.1-1.6-2.2C331.1,117.7,330.9,117.7,330.7,117.7L330.7,117.7z"/>
<path class="st0" d="M344.3,121.1l-0.3,1.4c-0.6,3.4-2.2,4.9-5.3,4.9c-0.8,0-1.6-0.1-2.3-0.2l-0.6,3.8c-0.1,0.2-0.2,0.4-0.5,0.4h-1
	c-0.1,0-0.3-0.1-0.3-0.2c0,0,0,0,0-0.1l0,0l0,0l2.4-13.9c0-0.3,0-0.4,0.5-0.5c1.2-0.3,2.5-0.5,3.8-0.5c1.8-0.2,3.5,1.2,3.7,3
	c0,0.2,0,0.5,0,0.7C344.4,120.4,344.4,120.8,344.3,121.1z M340.6,117.6c-0.8,0-1.6,0.1-2.4,0.2l-1.4,8c0.8,0.1,1.5,0.2,2.3,0.2
	c1.9,0,2.9-1.4,3.2-3.4l0.3-1.4c0-0.5,0-0.9,0-1.4C342.7,118.4,342.2,117.6,340.6,117.6z"/>
<path class="st0" d="M354.2,121.1l-0.3,1.5c-0.1,2.8-2.5,5-5.3,4.9c0,0-0.1,0-0.1,0c-1.9,0.1-3.6-1.3-3.7-3.2c0-0.2,0-0.4,0-0.6
	c0-0.4,0-0.7,0-1.1l0.3-1.5c0.1-2.8,2.4-5,5.2-4.9c0,0,0.1,0,0.1,0c1.9-0.2,3.6,1.3,3.7,3.2c0,0.2,0,0.4,0,0.6
	C354.2,120.3,354.2,120.7,354.2,121.1z M350.3,117.7c-1.8,0-2.9,1.3-3.3,3.4l-0.3,1.5c0,0.4,0,0.8,0,1.2c0,1.4,0.6,2.2,2.2,2.2
	s2.9-1.4,3.3-3.4l0.3-1.5c0-0.4,0-0.8,0-1.1c0.2-1.1-0.6-2.1-1.6-2.2C350.7,117.7,350.5,117.7,350.3,117.7L350.3,117.7z"/>
<path class="st0" d="M356.1,127c-0.1,0.2-0.3,0.4-0.5,0.4h-1c-0.2,0-0.3-0.2-0.3-0.3c0,0,0,0,0-0.1l1.8-10.3c0-0.2,0.2-0.4,0.5-0.4
	h0.9c0.2,0,0.3,0.2,0.3,0.3c0,0,0,0,0,0.1v0.5c0.8-0.7,1.9-1,2.9-1l0,0c0.4,0,0.4,0,0.4,0.4v0.9c0,0.2-0.2,0.4-0.5,0.4l0,0
	c-1-0.1-2.1,0.2-2.9,0.8L356.1,127z"/>
<path class="st0" d="M367.2,116.4c0.2,0,0.4,0,0.3,0.4v0.7c0,0.4-0.2,0.4-0.5,0.4h-2.2l-1.2,7.1c0,0.2,0,0.4,0,0.6
	c0,0.6,0.3,0.6,0.9,0.6h1.2c0.2,0,0.3,0,0.3,0.3v0.7c0,0.2,0,0.3-0.4,0.4c-0.4,0-0.8,0-1.3,0c-1.4,0-2.4-0.5-2.4-1.9
	c0-0.3,0-0.5,0-0.8l1.3-7.1l-1.9-0.2c-0.2,0-0.4-0.2-0.3-0.4v-0.6c0-0.2,0.2-0.4,0.4-0.4h2l0.3-2c0-0.2,0.2-0.4,0.4-0.4l1.1-0.1
	c0.3,0,0.4,0,0.3,0.4l-0.4,2.2L367.2,116.4z"/>
<path class="st0" d="M376.5,116.4c0.3,0,0.4,0.2,0.3,0.4l-1.8,10.3c0,0.2-0.2,0.4-0.5,0.4h-0.9c-0.2,0-0.3-0.2-0.3-0.3
	c0,0,0,0,0-0.1v-0.4c-1,0.6-2.2,0.9-3.4,0.9c-1.6,0-2.9-1.3-3-2.9c0-0.1,0-0.2,0-0.2c0-0.4,0-0.8,0-1.2l1.1-6.4
	c0-0.2,0.2-0.5,0.4-0.5c0.1,0,0.1,0,0.2,0h1c0.2,0,0.4,0,0.3,0.4l-1.2,6.7c0,0.4,0,0.8,0,1.1c0,1.1,0.6,1.5,1.9,1.5
	c1,0,2-0.3,2.9-0.7l1.5-8.5c0-0.2,0.2-0.4,0.5-0.4c0,0,0,0,0,0L376.5,116.4z"/>
<path class="st0" d="M386.3,120.4l-1.2,6.7c-0.1,0.2-0.2,0.4-0.5,0.4h-1c-0.2,0-0.3-0.1-0.3-0.3c0,0,0-0.1,0-0.1l1.2-6.7
	c0-0.4,0-0.7,0-1.1c0-1-0.4-1.5-1.9-1.5c-1,0-2,0.3-2.9,0.8l-1.5,8.5c-0.1,0.2-0.3,0.4-0.5,0.4h-1c-0.2,0-0.3-0.2-0.3-0.3
	c0,0,0,0,0-0.1l1.8-10.3c0-0.3,0.3-0.4,0.5-0.4c0,0,0,0,0,0h0.9c0.3,0,0.4,0,0.4,0.4v0.4c1-0.6,2.1-1,3.3-1c1.6-0.1,3,1.2,3.1,2.8
	c0,0.1,0,0.3,0,0.4C386.4,119.7,386.4,120,386.3,120.4z"/>
<path class="st0" d="M390.1,116.4c0.2,0,0.4,0,0.3,0.4l-1.8,10.3c0,0.2-0.2,0.4-0.5,0.4c0,0,0,0,0,0h-1c-0.2,0-0.3-0.1-0.3-0.2
	c0-0.1,0-0.1,0-0.2l1.8-10.3c0-0.2,0.2-0.4,0.4-0.4c0,0,0.1,0,0.1,0H390.1z M390.9,112.2c0.3,0,0.4,0,0.3,0.4l-0.3,1.6
	c0,0.3-0.1,0.4-0.5,0.4h-1.1c-0.3,0-0.4-0.2-0.3-0.4l0.3-1.6c0-0.2,0.2-0.4,0.5-0.4h0H390.9z"/>
<path class="st0" d="M399.8,112.2h1c0.2,0,0.3,0,0.3,0.4l-2.5,14.2c0,0.3,0,0.4-0.5,0.5c-1.2,0.2-2.5,0.4-3.8,0.4
	c-1.8,0.2-3.5-1.2-3.7-3c0-0.2,0-0.5,0-0.7c0-0.4,0-0.8,0-1.3l0.3-1.4c0.6-3.5,2.3-4.9,5.3-4.9c0.8,0,1.6,0.1,2.3,0.2l0.7-3.8
	C399.3,112.4,399.5,112.2,399.8,112.2C399.8,112.2,399.8,112.2,399.8,112.2z M396.1,117.7c-2,0-2.9,1.4-3.2,3.4l-0.3,1.4
	c0,0.4,0,0.9,0,1.3c0,1.4,0.6,2.1,2.2,2.1c0.7,0,1.7,0,2.4,0l1.4-8C397.8,117.8,396.9,117.7,396.1,117.7L396.1,117.7z"/>
<path class="st0" d="M409.5,116.6c0.4,0,0.4,0.2,0.4,0.5l-1.7,9.9c0,0.2-0.2,0.4-0.4,0.4c0,0,0,0-0.1,0h-0.7c-0.3,0-0.4-0.2-0.3-0.4
	v-0.6c-0.9,0.8-2.1,1.2-3.3,1.2c-1.7,0-3.1-1.1-3.1-3.6c0-0.4,0-0.8,0-1.2l0.4-2c0.2-2.7,2.5-4.8,5.2-4.6c0,0,0,0,0,0
	C407.1,116.2,408.3,116.3,409.5,116.6z M406,117.6c-2.1,0-3.1,1.1-3.5,3.3l-0.4,2.1c0,0.3,0,0.6,0,0.9c0,1.6,0.8,2.1,1.8,2.1
	c1.1-0.1,2.1-0.5,2.9-1.2l1.2-7C407.4,117.7,406.7,117.6,406,117.6z"/>
<path class="st0" d="M419.1,112.2h1c0.2,0,0.3,0,0.3,0.4l-2.5,14.2c0,0.3,0,0.4-0.5,0.5c-1.2,0.2-2.5,0.4-3.8,0.4
	c-1.8,0.2-3.5-1.1-3.8-2.9c0-0.3,0-0.6,0-0.8c0-0.4,0-0.8,0-1.3l0.3-1.4c0.6-3.5,2.3-4.9,5.3-4.9c0.8,0,1.6,0.1,2.3,0.2l0.7-3.8
	c0-0.2,0.2-0.5,0.4-0.5C418.9,112.2,419,112.2,419.1,112.2z M415.4,117.7c-2,0-2.9,1.4-3.2,3.4l-0.3,1.4c0,0.4,0,0.9,0,1.3
	c0,1.4,0.6,2.1,2.2,2.1c0.7,0,1.7,0,2.4,0l1.4-8C417,117.8,416.2,117.7,415.4,117.7L415.4,117.7z"/>
</svg>
